<?xml version="1.0" encoding="UTF-8" standalone="no"?>
<!DOCTYPE svg PUBLIC "-//W3C//DTD SVG 1.1//EN" "http://www.w3.org/Graphics/SVG/1.1/DTD/svg11.dtd">
<svg width="100%" height="100%" viewBox="0 0 640 640" version="1.1" xmlns="http://www.w3.org/2000/svg" xmlns:xlink="http://www.w3.org/1999/xlink" xml:space="preserve" xmlns:serif="http://www.serif.com/" style="fill-rule:evenodd;clip-rule:evenodd;stroke-linejoin:round;stroke-miterlimit:2;">
    <path fill="#5ac4ee" d="M304,112L192,112C183.2,112 176,119.2 176,128L176,512C176,520.8 183.2,528 192,528L448,528C456.8,528 464,520.8 464,512L464,272L376,272C336.2,272 304,239.8 304,200L304,112ZM444.1,224L352,131.9L352,200C352,213.3 362.7,224 376,224L444.1,224ZM128,128C128,92.7 156.7,64 192,64L325.5,64C342.5,64 358.8,70.7 370.8,82.7L493.3,205.3C505.3,217.3 512,233.6 512,250.6L512,512C512,547.3 483.3,576 448,576L192,576C156.7,576 128,547.3 128,512L128,128Z" style="fill-rule:nonzero;"/>
    <g transform="matrix(1.24,0,0,2.5,-91.84,-763.5)">
        <g transform="matrix(1.971109,0,0,1.971109,-301.392152,-525.336684)">
            <path fill="#5ac4ee" d="M307.091,502.381L317.941,504.088C316.277,507.088 313.511,509.316 309.643,510.772C305.774,512.228 300.866,512.956 294.919,512.956C287.56,512.956 281.512,511.709 276.774,509.216C272.036,506.722 269.667,503.313 269.667,498.988C269.667,494.413 272.048,490.859 276.811,488.328C281.575,485.797 287.837,484.531 295.599,484.531C302.379,484.531 307.885,485.525 312.119,487.513C314.639,488.688 316.529,490.375 317.789,492.575L306.713,493.888C306.058,492.463 304.691,491.338 302.612,490.513C300.533,489.688 298.006,489.275 295.032,489.275C290.924,489.275 287.591,490.006 285.034,491.469C282.476,492.931 281.197,495.3 281.197,498.575C281.197,502.05 282.457,504.525 284.977,506C287.497,507.475 290.773,508.213 294.805,508.213C297.779,508.213 300.337,507.744 302.479,506.806C304.621,505.869 306.159,504.394 307.091,502.381Z" style="fill-rule:nonzero;"/>
        </g>
        <g transform="matrix(1.971109,0,0,1.971109,-301.392152,-525.336684)">
            <path fill="#5ac4ee" d="M341.68,512.488L321.872,485L334.007,485L348.031,505.344L361.602,485L373.472,485L353.626,512.488L341.68,512.488Z" style="fill-rule:nonzero;"/>
        </g>
    </g>
</svg>
